<svg xmlns="http://www.w3.org/2000/svg" xmlns:xlink="http://www.w3.org/1999/xlink" viewBox="0 0 644 666">
  <defs>
    <linearGradient x1="50%" y1="-.616%" x2="50%" y2="100.865%" id="b">
      <stop stop-color="#00ACEC" offset="0%"/>
      <stop stop-color="#00ACEC" offset="100%"/>
    </linearGradient>
    <path d="M461.52 0c-73.463.164-138.496 36.328-138.496 36.328S257.145.171 183.084 0h-1.028C140.593.092 96.658 11.547 60.32 46.985 17.378 88.861.052 140.675 0 195.32v.538c.086 74.521 32.223 154.265 75.292 221.175 45.712 71.024 127.752 148.262 184.61 197.578C485.85 471.232 552.55 300.964 567.621 252.096c9.457-30.65 9.74-73.683-4.005-110.466-172.269 71.67-195.488 175.966-192.954 234.686 3.479-3.483 7.23-6.899 11.29-10.178 30.465-24.613 65.026-32.474 77.189-17.556 12.163 14.921-2.672 46.971-33.137 71.588-30.47 24.617-65.027 32.478-77.19 17.56-1.96-2.409-3.149-5.294-3.754-8.484-4.008-12.6-16.763-60.592-.742-119.675 15.924-58.748 64.393-139.662 203.281-198.338-.712-.996-1.361-2.04-2.107-3.019-20.294-26.57-49.02-39.517-85.502-38.57-46.311 1.246-79.537 13.748-98.755 37.16a77.816 77.816 0 0 0-5.16 7.095c27.726-18.73 56.456-23.621 67.323-10.298 12.166 14.921-2.671 46.971-33.137 71.592-30.47 24.617-65.027 32.474-77.193 17.556-2.173-2.67-3.452-5.9-3.964-9.52l-.203.037c-.395-2.248-9.285-55.476 25.712-98.115 25.828-31.461 67.694-48.19 124.449-49.716 47.39-1.321 86.811 16.728 113.802 52.074 39.875 52.228 42.274 127.136 27.619 174.635-15.745 51.048-84.488 227.164-313.288 375.673C308.403 655.5 321.999 666 321.999 666s171.946-132.814 246.712-248.968c74.758-116.154 116.593-270.946 14.968-370.047C547.345 11.554 503.66.095 462.54 0h-1.021Z" id="a"/>
  </defs>
  <g fill="none" fill-rule="evenodd" opacity=".2">
    <mask id="c" fill="#fff">
      <use xlink:href="#a"/>
    </mask>
    <path d="M461.52 0c-73.463.164-138.496 36.328-138.496 36.328S257.145.171 183.084 0h-1.028C140.593.092 96.658 11.547 60.32 46.985 17.378 88.861.052 140.675 0 195.32v.538c.086 74.521 32.223 154.265 75.292 221.175 45.712 71.024 127.752 148.262 184.61 197.578C485.85 471.232 552.55 300.964 567.621 252.096c9.457-30.65 9.74-73.683-4.005-110.466-172.269 71.67-195.488 175.966-192.954 234.686 3.479-3.483 7.23-6.899 11.29-10.178 30.465-24.613 65.026-32.474 77.189-17.556 12.163 14.921-2.672 46.971-33.137 71.588-30.47 24.617-65.027 32.478-77.19 17.56-1.96-2.409-3.149-5.294-3.754-8.484-4.008-12.6-16.763-60.592-.742-119.675 15.924-58.748 64.393-139.662 203.281-198.338-.712-.996-1.361-2.04-2.107-3.019-20.294-26.57-49.02-39.517-85.502-38.57-46.311 1.246-79.537 13.748-98.755 37.16a77.816 77.816 0 0 0-5.16 7.095c27.726-18.73 56.456-23.621 67.323-10.298 12.166 14.921-2.671 46.971-33.137 71.592-30.47 24.617-65.027 32.474-77.193 17.556-2.173-2.67-3.452-5.9-3.964-9.52l-.203.037c-.395-2.248-9.285-55.476 25.712-98.115 25.828-31.461 67.694-48.19 124.449-49.716 47.39-1.321 86.811 16.728 113.802 52.074 39.875 52.228 42.274 127.136 27.619 174.635-15.745 51.048-84.488 227.164-313.288 375.673C308.403 655.5 321.999 666 321.999 666s171.946-132.814 246.712-248.968c74.758-116.154 116.593-270.946 14.968-370.047C547.345 11.554 503.66.095 462.54 0h-1.021Z" fill="url(#b)" mask="url(#c)"/>
  </g>
</svg>
