<?xml version="1.0" encoding="UTF-8"?>
<svg width="51px" height="58px" viewBox="0 0 51 58" version="1.1" xmlns="http://www.w3.org/2000/svg" xmlns:xlink="http://www.w3.org/1999/xlink">
    <title>calendar-check</title>
    <g id="Page-1-Copy" stroke="none" stroke-width="1" fill="none" fill-rule="evenodd">
        <g id="Desktop-HD-Copy-3" transform="translate(-333.000000, -1160.000000)" fill="#FFFFFF" fill-rule="nonzero">
            <g id="calendar-check" transform="translate(333.000000, 1160.000000)">
                <path d="M45.5357143,7.25 L40.0714286,7.25 L40.0714286,1.359375 C40.0714286,0.608660156 39.4597701,0 38.7053571,0 L37.7946429,0 C37.0402299,0 36.4285714,0.608660156 36.4285714,1.359375 L36.4285714,7.25 L14.5714286,7.25 L14.5714286,1.359375 C14.5714286,0.608660156 13.9597701,0 13.2053571,0 L12.2946429,0 C11.5402299,0 10.9285714,0.608660156 10.9285714,1.359375 L10.9285714,7.25 L5.46428571,7.25 C2.44640625,7.25 0,9.68441406 0,12.6875 L0,52.5625 C0,55.5655859 2.44640625,58 5.46428571,58 L45.5357143,58 C48.5535937,58 51,55.5655859 51,52.5625 L51,12.6875 C51,9.68441406 48.5535937,7.25 45.5357143,7.25 Z M5.46428571,10.875 L45.5357143,10.875 C46.5400045,10.875 47.3571429,11.6881328 47.3571429,12.6875 L47.3571429,18.125 L3.64285714,18.125 L3.64285714,12.6875 C3.64285714,11.6881328 4.45999554,10.875 5.46428571,10.875 Z M45.5357143,54.375 L5.46428571,54.375 C4.45999554,54.375 3.64285714,53.5618672 3.64285714,52.5625 L3.64285714,21.75 L47.3571429,21.75 L47.3571429,52.5625 C47.3571429,53.5618672 46.5400045,54.375 45.5357143,54.375 Z M37.9691585,32.292293 L22.6246473,47.4391289 C22.0896027,47.9673594 21.2257902,47.9649805 20.6935915,47.433918 L13.0256049,39.781543 C12.4924955,39.2494609 12.4937478,38.3880703 13.0283371,37.8574609 L13.9965402,36.8968359 C14.5312433,36.3663398 15.3968772,36.3675859 15.9299866,36.8995547 L21.6722679,42.6301133 L35.0804866,29.3946719 C35.6165558,28.8655352 36.4821897,28.8689336 37.0140469,29.402375 L37.9768996,30.3683242 C38.5087567,30.9017656 38.5052277,31.7631562 37.9691585,32.292293 L37.9691585,32.292293 Z" id="Shape"></path>
            </g>
        </g>
    </g>
</svg>