<?xml version="1.0" encoding="UTF-8"?>
<svg width="52px" height="69px" viewBox="0 0 52 69" version="1.1" xmlns="http://www.w3.org/2000/svg" xmlns:xlink="http://www.w3.org/1999/xlink">
    <title>clipboard-list-check</title>
    <g id="Page-1-Copy" stroke="none" stroke-width="1" fill="none" fill-rule="evenodd">
        <g id="Desktop-HD-Copy-3" transform="translate(-1051.000000, -1140.000000)" fill="#FFFFFF" fill-rule="nonzero">
            <g id="clipboard-list-check" transform="translate(1051.000000, 1140.000000)">
                <path d="M45.5,8.625 L33.5020833,8.625 C33.55625,8.27460937 33.5833333,7.91074219 33.5833333,7.546875 C33.5833333,3.38261719 30.184375,0 26,0 C21.815625,0 18.4166667,3.38261719 18.4166667,7.546875 C18.4166667,7.91074219 18.44375,8.27460937 18.4979167,8.625 L6.5,8.625 C2.91145833,8.625 0,11.5224609 0,15.09375 L0,62.53125 C0,66.1025391 2.91145833,69 6.5,69 L45.5,69 C49.0885417,69 52,66.1025391 52,62.53125 L52,15.09375 C52,11.5224609 49.0885417,8.625 45.5,8.625 Z M26,4.3125 C27.8010417,4.3125 29.25,5.75449219 29.25,7.546875 C29.25,9.33925781 27.8010417,10.78125 26,10.78125 C24.1989583,10.78125 22.75,9.33925781 22.75,7.546875 C22.75,5.75449219 24.1989583,4.3125 26,4.3125 Z M47.6666667,62.53125 C47.6666667,63.7171875 46.6916667,64.6875 45.5,64.6875 L6.5,64.6875 C5.30833333,64.6875 4.33333333,63.7171875 4.33333333,62.53125 L4.33333333,15.09375 C4.33333333,13.9078125 5.30833333,12.9375 6.5,12.9375 L13,12.9375 L13,15.6328125 C13,16.5222656 13.73125,17.25 14.625,17.25 L37.375,17.25 C38.26875,17.25 39,16.5222656 39,15.6328125 L39,12.9375 L45.5,12.9375 C46.6916667,12.9375 47.6666667,13.9078125 47.6666667,15.09375 L47.6666667,62.53125 Z M15.1666667,44.203125 C13.365625,44.203125 11.9166667,45.6451172 11.9166667,47.4375 C11.9166667,49.2298828 13.365625,50.671875 15.1666667,50.671875 C16.9677083,50.671875 18.4166667,49.2298828 18.4166667,47.4375 C18.4166667,45.6451172 16.9677083,44.203125 15.1666667,44.203125 Z M37.9166667,45.28125 L22.75,45.28125 C22.1541667,45.28125 21.6666667,45.7664063 21.6666667,46.359375 L21.6666667,48.515625 C21.6666667,49.1085937 22.1541667,49.59375 22.75,49.59375 L37.9166667,49.59375 C38.5125,49.59375 39,49.1085937 39,48.515625 L39,46.359375 C39,45.7664063 38.5125,45.28125 37.9166667,45.28125 Z M17.0895833,36.440625 L25.7833333,27.8695312 C26.0677083,27.5865234 26.0677083,27.1283203 25.7833333,26.8453125 L24.0770833,25.1337891 C23.7927083,24.8507813 23.3322917,24.8507813 23.0479167,25.1337891 L16.6020833,31.4947266 L13.8125,28.678125 C13.528125,28.3951172 13.0677083,28.3951172 12.7833333,28.678125 L11.0635417,30.3761719 C10.7791667,30.6591797 10.7791667,31.1173828 11.0635417,31.4003906 L16.0875,36.440625 C16.3447917,36.7236328 16.8052083,36.7236328 17.0895833,36.440625 L17.0895833,36.440625 Z M37.9166667,32.34375 L27.4083333,32.34375 L23.034375,36.65625 L37.9166667,36.65625 C38.5125,36.65625 39,36.1710937 39,35.578125 L39,33.421875 C39,32.8289062 38.5125,32.34375 37.9166667,32.34375 Z" id="Shape"></path>
            </g>
        </g>
    </g>
</svg>