<?xml version="1.0" encoding="UTF-8"?>
<svg width="67px" height="53px" viewBox="0 0 67 53" version="1.1" xmlns="http://www.w3.org/2000/svg" xmlns:xlink="http://www.w3.org/1999/xlink">
    <title>user-md-chat</title>
    <g id="Page-1-Copy" stroke="none" stroke-width="1" fill="none" fill-rule="evenodd">
        <g id="Desktop-HD-Copy-3" transform="translate(-685.000000, -1157.000000)" fill="#FFFFFF" fill-rule="nonzero">
            <g id="user-md-chat" transform="translate(685.000000, 1157.000000)">
                <path d="M53.6000001,0 C46.1996408,0 40.2000002,5.19337891 40.2000002,11.59375 C40.2000002,14.5708594 41.5347659,17.258125 43.6662033,19.3108398 C42.7745575,21.3267092 41.6769688,23.2472329 40.3905315,25.0425 C40.1936985,25.3152503 40.14479,25.6661577 40.2596721,25.9813867 C40.3737815,26.3053906 40.6187502,26.4989648 40.8982659,26.4989648 C45.0700627,26.4989648 48.4724064,24.7257422 50.8676564,22.942168 C51.7691583,23.1047722 52.6836227,23.1868802 53.6000001,23.1875 C61.0014063,23.1875 67,17.9972266 67,11.59375 C67,5.19027344 61.0014063,0 53.6000001,0 Z M53.6000001,19.875 C52.884506,19.8744575 52.1704912,19.8107146 51.4664689,19.6845312 L50.0238752,19.4257422 L48.8534689,20.2973437 C47.9993295,20.9396544 47.0830423,21.4968648 46.1179846,21.9608398 C46.3273596,21.5384961 46.5367346,21.0964844 46.7366877,20.636875 L47.6652658,18.5375781 L46.0038752,16.9382617 C44.8847658,15.8627344 43.5500002,14.0605273 43.5500002,11.59375 C43.5500002,7.02767578 48.0578439,3.3125 53.6000001,3.3125 C59.1421563,3.3125 63.65,7.02767578 63.65,11.59375 C63.65,16.1598242 59.1421563,19.875 53.6000001,19.875 Z M33.2581722,29.8228516 C29.7197347,29.7193359 28.620516,31.46875 23.4489535,31.46875 C18.2773911,31.46875 17.1896879,29.7193359 13.6512505,29.8228516 C6.04700062,30.0429275 -0.00155685464,36.2026524 3.00590727e-07,43.725 L3.00590727e-07,52.171875 C3.00590727e-07,52.6292358 0.37496212,53 0.837500594,53 L2.51250058,53 C2.97503905,53 3.35000057,52.6292358 3.35000057,52.171875 L3.35000057,43.725 C3.35000057,38.1041016 7.80968803,33.5390625 13.4000005,33.1871094 L13.4000005,41.6443359 C10.6104943,42.4666963 8.85367952,45.1883518 9.27391702,48.0364597 C9.69415453,50.8845677 12.1641553,52.9964423 15.0750005,52.9964423 C17.9858456,52.9964423 20.4558464,50.8845677 20.8760839,48.0364597 C21.2963214,45.1883518 19.5395066,42.4666963 16.7500005,41.6443359 L16.7500005,33.6839844 C21.096443,35.1331849 25.8035577,35.1331849 30.1500003,33.6839844 L30.1500003,40.8058594 C27.1978129,41.5822266 25.1250004,44.3771484 25.1250004,47.4929687 L25.1250004,50.515625 C25.1264472,50.9544654 25.3033145,51.3749396 25.6170316,51.6853516 L26.6953129,52.7515625 C27.0222121,53.0740205 27.5513823,53.0740205 27.8782816,52.7515625 L29.0612503,51.5818359 C29.3873589,51.258596 29.3873589,50.7353493 29.0612503,50.4121094 L28.4645316,49.8220703 L28.4645316,47.203125 C28.4678049,46.2275147 28.9039832,45.3024917 29.6576446,44.6728365 C30.411306,44.0431812 31.4064878,43.7723576 32.3798441,43.9320312 C34.0234378,44.2011719 35.1645315,45.7332031 35.1645315,47.3791016 L35.1645315,49.8220703 L34.5678128,50.4121094 C34.2417043,50.7353493 34.2417043,51.258596 34.5678128,51.5818359 L35.7507815,52.7515625 C36.0776808,53.0740205 36.606851,53.0740205 36.9337503,52.7515625 L38.0120315,51.6853516 C38.3257486,51.3749396 38.502616,50.9544654 38.5040628,50.515625 L38.5040628,47.203125 C38.493916,44.1938086 36.4276657,41.5718038 33.4790628,40.8265625 L33.4790628,33.1974609 C39.0693753,33.5494141 43.5290627,38.1144531 43.5290627,43.7353516 L43.5290627,52.171875 C43.5290627,52.6292358 43.9040242,53 44.3665627,53 L46.0415627,53 C46.5041012,53 46.8791133,52.6292358 46.8791133,52.171875 L46.8791133,43.725 C46.899289,36.2066936 40.8584146,30.041081 33.2581722,29.8228516 L33.2581722,29.8228516 Z M17.5875004,47.203125 C17.5875004,48.5752074 16.4626159,49.6875 15.0750005,49.6875 C13.687385,49.6875 12.5625005,48.5752074 12.5625005,47.203125 C12.5625005,45.8310426 13.687385,44.71875 15.0750005,44.71875 C16.4611833,44.7221639 17.5840479,45.8324591 17.5875004,47.203125 Z M23.4500004,26.5 C30.850616,26.5 36.8500003,20.5677729 36.8500003,13.25 C36.8500003,5.93222706 30.850616,0 23.4500004,0 C16.0493848,0 10.0500005,5.93222706 10.0500005,13.25 C10.0500005,20.5677729 16.0493848,26.5 23.4500004,26.5 Z M23.4500004,3.3125 C29.0004621,3.3125 33.5000003,7.7616703 33.5000003,13.25 C33.5000003,18.7383297 29.0004621,23.1875 23.4500004,23.1875 C17.8995387,23.1875 13.4000005,18.7383297 13.4000005,13.25 C13.4086472,7.76521571 17.9031243,3.32104995 23.4500004,3.3125 Z" id="Shape"></path>
            </g>
        </g>
    </g>
</svg>